# Blender v2.78 (sub 0) OBJ File: '9mmPB_001_(Start).blend'
# www.blender.org
mtllib 9mmPB_001_(Start).mtl
o Circle
v 0.000000 0.000000 -1.000000
v -0.642788 0.000000 -0.766044
v -0.984808 0.000000 -0.173648
v -0.866025 0.000000 0.500000
v -0.342020 0.000000 0.939693
v 0.342020 0.000000 0.939693
v 0.866025 0.000000 0.500000
v 0.984808 0.000000 -0.173648
v 0.642788 0.000000 -0.766044
v 0.000000 3.115375 -1.000000
v -0.642788 3.115375 -0.766044
v -0.984808 3.115375 -0.173648
v -0.866025 3.115375 0.500000
v -0.342020 3.115375 0.939693
v 0.342020 3.115375 0.939693
v 0.866025 3.115375 0.500000
v 0.984808 3.115375 -0.173648
v 0.642788 3.115375 -0.766044
v 0.000000 3.881584 0.000000
vt 0.4194 0.5443
vt 0.5237 0.5063
vt 0.6281 0.5443
vt 0.6837 0.6405
vt 0.6644 0.7499
vt 0.5793 0.8213
vt 0.4682 0.8213
vt 0.3831 0.7499
vt 0.3638 0.6405
vt 0.3635 0.7549
vt 0.2812 0.8531
vt 0.1875 0.6908
vt 0.3334 0.0001
vt 0.4445 0.0001
vt 0.4445 0.5060
vt 0.3334 0.5060
vt 0.1112 0.0001
vt 0.2223 0.0001
vt 0.2223 0.5060
vt 0.1112 0.5060
vt 0.7777 0.0001
vt 0.8888 0.0001
vt 0.8888 0.5060
vt 0.7777 0.5060
vt 0.5555 0.0001
vt 0.5555 0.5060
vt 0.9999 0.0001
vt 0.9999 0.5060
vt 0.6666 0.0001
vt 0.6666 0.5060
vt 0.0001 0.0001
vt 0.0001 0.5060
vt 0.1550 0.5063
vt 0.2812 0.5286
vt 0.0440 0.8112
vt 0.0001 0.6908
vt 0.3635 0.6267
vt 0.0440 0.5704
vt 0.1550 0.8753
vn 0.0000 -1.0000 0.0000
vn 0.2161 0.7750 -0.5938
vn -0.3420 0.0000 -0.9397
vn 0.8660 0.0000 -0.5000
vn 0.0000 0.0000 1.0000
vn -0.8660 0.0000 -0.5000
vn 0.3420 0.0000 -0.9397
vn 0.6428 0.0000 0.7660
vn -0.9848 0.0000 0.1736
vn 0.9848 0.0000 0.1736
vn -0.6428 0.0000 0.7660
vn 0.4062 0.7750 0.4841
vn -0.6223 0.7750 0.1097
vn 0.6223 0.7750 0.1097
vn -0.4062 0.7750 0.4841
vn -0.2161 0.7750 -0.5938
vn 0.5473 0.7750 -0.3160
vn 0.0000 0.7750 0.6319
vn -0.5473 0.7750 -0.3160
usemtl Material.001
s off
f 2/1/1 1/2/1 9/3/1 8/4/1 7/5/1 6/6/1 5/7/1 4/8/1 3/9/1
f 18/10/2 10/11/2 19/12/2
f 1/13/3 2/14/3 11/15/3 10/16/3
f 8/17/4 9/18/4 18/19/4 17/20/4
f 5/21/5 6/22/5 15/23/5 14/24/5
f 2/14/6 3/25/6 12/26/6 11/15/6
f 9/18/7 1/13/7 10/16/7 18/19/7
f 6/22/8 7/27/8 16/28/8 15/23/8
f 3/25/9 4/29/9 13/30/9 12/26/9
f 7/31/10 8/17/10 17/20/10 16/32/10
f 4/29/11 5/21/11 14/24/11 13/30/11
f 15/33/12 16/34/12 19/12/12
f 12/35/13 13/36/13 19/12/13
f 16/34/14 17/37/14 19/12/14
f 13/36/15 14/38/15 19/12/15
f 10/11/16 11/39/16 19/12/16
f 17/37/17 18/10/17 19/12/17
f 14/38/18 15/33/18 19/12/18
f 11/39/19 12/35/19 19/12/19
